<svg id="Layer_1" data-name="Layer 1" xmlns="http://www.w3.org/2000/svg" viewBox="0 0 609.9 320.07"><defs><style>.cls-1{fill:#fff;}</style></defs><title>blanc</title><path class="cls-1" d="M218,1.84H243.5V73c5.49,0,10.4.34,15.2-.24,1.15-.15,2.74-3.35,2.76-5.16.2-19.77.12-39.54.12-59.31V1.93H286.8V163h-25V95.23h-18v67.6H218Z"/><path class="cls-1" d="M300.92,82.11c0-17.2-.18-34.4.05-51.6C301.22,12,308,3.34,326.22.56,334.27-.68,343,.28,351.09,2c10.71,2.32,16.52,10.31,18.14,21a92.84,92.84,0,0,1,1,13.64q.13,45.84,0,91.67A94.39,94.39,0,0,1,369.18,142c-1.71,11.35-8.39,19.21-19.47,21a88.59,88.59,0,0,1-28.24.11c-12.63-2.05-20.15-12.12-20.34-25.08-.28-18.66-.07-37.32-.07-56Zm43.13.46h0c0-17,.11-34,0-51-.08-8.29-7.19-13.16-13-8.65-2.52,2-4.24,6.48-4.27,9.85-.31,33.11-.2,66.22-.14,99.33a19.3,19.3,0,0,0,1,5.88c1.25,3.81,4.19,5.33,8.08,5.23s6.68-2,7.67-5.82a26.62,26.62,0,0,0,.69-6.49C344.07,114.77,344.05,98.67,344.05,82.57Z"/><path class="cls-1" d="M409.13,127v36H384.05V1.9c1.72-.14,3.47-.38,5.22-.39q17.6,0,35.18,0a65.63,65.63,0,0,1,6.58.39c12.91,1.34,19.18,7.22,20.45,20.15.73,7.45.59,15,.62,22.49.08,16.47,0,33,0,49.42,0,1.65,0,3.3,0,4.94-.48,21.26-7.5,28.1-28.81,28.11Zm.07-22c2.05.13,3.14.24,4.23.26,11.63.19,13.23-1.39,13.24-13.2q0-28.56,0-57.13c0-9.77-2.31-11.85-11.9-12.12-4.28-.12-5.7,1.09-5.66,5.52.21,23.25.1,46.51.1,69.76Z"/><path class="cls-1" d="M0,1.84H25.46V73c5.49,0,10.41.34,15.2-.24,1.16-.15,2.74-3.35,2.76-5.16.2-19.77.13-39.54.13-59.31V1.93H68.77V163h-25V95.23h-18v67.6H0Z"/><path class="cls-1" d="M147.72,126.72v35.94H122.16V1.63c1.76-.14,3.51-.39,5.26-.4,11.72,0,23.45-.05,35.17,0a66.49,66.49,0,0,1,8.22.55C182,3.26,187.87,8.85,189.56,20a91.19,91.19,0,0,1,1,13.1q.15,31.29,0,62.58a79.91,79.91,0,0,1-1.06,12.55c-2,12.27-9.43,18.09-23.34,18.48C160.34,126.86,154.49,126.72,147.72,126.72Zm.41-104.09v81.91c14.57,1.68,16.74-.14,16.75-13.86,0-18.82.06-37.64,0-56.46,0-9.47-2.3-11.56-11.73-11.59Z"/><path class="cls-1" d="M82.87,1.57H108v161H82.87Z"/><path class="cls-1" d="M231.61,204.64a13.06,13.06,0,0,1-4,2.14,3.42,3.42,0,0,1-3.57-.66,1.27,1.27,0,0,1-.55-.84c-1.52,0-3,0-4.53.21a17.29,17.29,0,0,1-2.87.18l-.6.07-.15,0-.15,0-1.35.15c-1.8.21-3.62.27-5.42.47-8.1.94-16,2.3-24.06,3.54-9.24,1.52-18.32,3.17-27.53,5s-18.43,3.65-27.61,5.77c-9.49,2-18.8,4.29-28.28,6.45-4.6,1-9.36,1.84-13.92,3.13a98.4,98.4,0,0,1-11.41,2.53c-1.37,0-3.07-.26-4-1.52-.73-1.13.36-2.17,1.56-2.31a57.31,57.31,0,0,0,9.95-2.06c3.68-1,7.54-1.78,11.24-2.66,8.31-1.72,16.44-3.72,24.72-5.74,18.2-4.22,36.62-7.86,55.1-11.06,9.53-1.7,19.08-3.26,28.67-4.37a167.44,167.44,0,0,1,25.94-1.77,3.77,3.77,0,0,1,3.2,1.45A1.27,1.27,0,0,1,231.61,204.64Zm-85.73,19.61c.56.85.08,2-.12,2.9a33.82,33.82,0,0,1-2.26,5.43c-.73,1.6-1.75,3.24-2.63,4.86-.84,1.92-1.84,3.86-2.85,5.65-3.68,7.56-7.39,15-10.92,22.53L121,278.93,115,292.1a173.4,173.4,0,0,0-9.37,26.76c-.43,1.57-3,1.41-4.19.63a3.34,3.34,0,0,1-1.84-2.82,9.78,9.78,0,0,1,.69-1.91,1.46,1.46,0,0,1,1.25-1.05c3.79-13.21,9.61-26,15.48-38.41L123.18,262c2.07-4.49,4.28-9,6.52-13.36l6.66-13.38c1-2.09,2.13-3.9,3.11-6,.34-1,.84-1.92,1.17-3l.43-1.57c.11-.31.08-.61.36-.8l.27-.33.13-.17-.13.17c.09-.47.68-.69,1.13-.74A2.94,2.94,0,0,1,145.88,224.25Z"/><path class="cls-1" d="M141.75,278.07l-.27.33a7.44,7.44,0,0,0-.52,2,.54.54,0,0,0-.1.46c0,.15-.11.32-.1.47l-.08.62c.12,1.05.09,2.12,1.25,2.89a2.11,2.11,0,0,0,.93.2l1.35-.16a27.55,27.55,0,0,0,9-3.62c7-4.14,13.21-9.27,20.67-15.75,1.51-1.39,3.47-2.83,4.84-4.21a13.28,13.28,0,0,1,2.67-1.83,2.38,2.38,0,0,1,1-.27h.15c-.15,0,.47.09.47.09.77.07.47.1.95.35l.34.27.16.13a1.29,1.29,0,0,1,.13,1.05l-.25.48-.4.51-1.78,1.72-.55.52-4.41,3.85a151.54,151.54,0,0,1-14.06,11.2,63.25,63.25,0,0,1-12.41,7.05,23.33,23.33,0,0,1-7.11,1.58c-2.89,0-5.93-1.3-7.15-4-.92-2.63.22-5.95,1.31-8.36a43.22,43.22,0,0,1,5.44-8.22,36.58,36.58,0,0,1,6.69-6.55c2.22-1.78,6-3.72,9-1.95,2.63,1.67,1.62,4.82.36,7.1a25.29,25.29,0,0,1-5,6.2,31.93,31.93,0,0,1-6.89,4.9A7.52,7.52,0,0,1,141.75,278.07ZM156,263.35a3.8,3.8,0,0,0,.21-2.15,12.25,12.25,0,0,0-4,2.59c-.83.7-1.36,1.37-2,2-.13.17-.68.69-.68.69a49.32,49.32,0,0,0-6,7.68l-.63,1.13C142.46,276.31,151.92,271.42,156,263.35Z"/><path class="cls-1" d="M175.49,274.18l-.27.33a7.54,7.54,0,0,0-.52,2,.54.54,0,0,0-.1.46c0,.15-.11.32-.1.47l-.08.62c.12,1,.09,2.12,1.25,2.89a2,2,0,0,0,.93.2L178,281a27.79,27.79,0,0,0,9-3.63c7-4.14,13.21-9.27,20.67-15.75,1.51-1.39,3.47-2.83,4.84-4.21a12.86,12.86,0,0,1,2.67-1.82,2.28,2.28,0,0,1,1-.28h.16c-.16,0,.46.1.46.1.77.06.47.09,1,.34l.34.27.17.13a1.33,1.33,0,0,1,.12,1.05l-.25.48-.4.51-1.78,1.72-.54.52L211,264.31a151.54,151.54,0,0,1-14.06,11.2,62.25,62.25,0,0,1-12.41,7.05,23.27,23.27,0,0,1-7.11,1.58c-2.89,0-5.93-1.29-7.15-4-.91-2.63.22-6,1.31-8.36a43.22,43.22,0,0,1,5.44-8.22,36.58,36.58,0,0,1,6.69-6.55c2.23-1.77,5.95-3.72,9-2,2.63,1.67,1.62,4.83.37,7.1a25.34,25.34,0,0,1-5.06,6.2,31.76,31.76,0,0,1-6.88,4.9A7.54,7.54,0,0,1,175.49,274.18Zm14.26-14.72a3.78,3.78,0,0,0,.21-2.15,12.25,12.25,0,0,0-4,2.59,28.14,28.14,0,0,0-2,2.06c-.13.16-.68.68-.68.68a48.66,48.66,0,0,0-5.95,7.68l-.63,1.13C176.2,272.42,185.67,267.53,189.75,259.46Z"/><path class="cls-1" d="M372.12,204.25a65.89,65.89,0,0,1-12.41,15,120.59,120.59,0,0,1-15.24,11.48c-6.35,4.23-12.75,8-19.32,11.65s-13.18,7-19.95,10.2c-3,1.41-6.21,2.84-9.4,4.12a38.2,38.2,0,0,1-4.35,1.87l-2.19.71-1,.42c-.63,1.14-1.26,2.27-1.87,3.56q-6.53,12.6-12.55,25.61a139.09,139.09,0,0,0-5.66,12.81l-2.43,6.66a31.71,31.71,0,0,0-.82,3.44,16.52,16.52,0,0,0-.42,2.94c.28,2.39-4.16,2.15-5,.42,0-.15-.19-.29-.21-.44l0-.3c-.8-2.94,1-6.19,1.86-8.87l3.91-12.31c1.48-4.27,2.94-8.69,4.26-13.1,2.4-8.18,4.45-16.77,3.91-25.38a44.46,44.46,0,0,0-1.71-10.89,34.55,34.55,0,0,0-3.94-9.12,9.27,9.27,0,0,0-1.44-2l-.57-1c.2.43-.15,0-.17-.13s-.18-.29-.33-.27a16.8,16.8,0,0,0-1.71-1.63l-.52-.54c-.17-.14-.5-.4-.65-.38l-1-.65L261,228h-.15l-.95-.34c0-.15-.32-.12-.49-.25l-.93-.2-.45.06a1.93,1.93,0,0,0-.92-.05l-.3,0a3.86,3.86,0,0,1-3.29-.83,1.36,1.36,0,0,1-.09-2.12,203.65,203.65,0,0,1,34.72-27.1c14.6-9.13,30.6-16.6,47.49-20.37,7.4-1.76,15.44-3.14,23.12-2.51,6.75.59,14.91,2.84,17.54,9.83C378.8,191,375.72,198.52,372.12,204.25Zm-114,23,1.38.14.17.13C259,227.32,259.3,227.44,259.45,227.42Zm1.44.59H261C260.89,228,260.4,227.77,260.89,228Zm111-40.3a13.08,13.08,0,0,0-.43-2.38,7.72,7.72,0,0,0-.67-1.9l-.57-1-.36-.42c-.35-.41.34.27,0-.15-.34-.26-.52-.55-.84-.66,0-.15-.18-.28-.35-.42a16.14,16.14,0,0,0-2-1.29c-.64-.23.48.25-.15,0-.15,0-.32-.12-.49-.25l-1.1-.33a1.14,1.14,0,0,0-.64-.23c-.16-.13-.78-.21-.14,0l-1.11-.33a21.83,21.83,0,0,0-2.48-.48,6.17,6.17,0,0,1-.77-.06c-.15,0-.32-.11-.47-.1l-1.06,0a13.17,13.17,0,0,0-2.59,0,16.58,16.58,0,0,0-2.73,0l-1.2.14h-.15a1.47,1.47,0,0,0-.77-.06c-1.95.23-3.88.6-5.83.83-16.39,2.8-32.37,9.2-46.91,17.56a198.2,198.2,0,0,0-37.66,27.9,18.14,18.14,0,0,1,5.46,2.56c5.48,4.08,8.79,10.38,10.59,16.71a54,54,0,0,1,1.34,23.55c-.19.93-.26,1.7-.45,2.64,2.46-5,5.23-10,7.84-15,7.76-14.42,16-28.59,23.91-43,1-1.79,5.89-.37,4.76,1.73l-1.37,2.59c-7,13-14.53,25.54-21.55,38.5l6.09-2.52c4.76-2.22,9.65-4.61,14.39-7,12.78-6.49,25.49-13.58,37.09-22.36,2.36-1.94,4.74-3.74,6.93-5.81a41.06,41.06,0,0,0,4.23-4.14l1.48-1.69a60.32,60.32,0,0,0,6.28-8.78,27,27,0,0,0,4.06-9.58A12.92,12.92,0,0,0,371.89,187.71Zm-12.55-10,.32.12C359.19,177.78,359.19,177.78,359.34,177.76Z"/><path class="cls-1" d="M403.41,237.12c-4.45,4.92-8.48,9.48-13.61,13.72-2.36,1.95-3.46,3-5.29,4.26-5.61,4-7.61,5.13-9.81,5.84-3.55.87-8.25.95-10.58-2.12-1.4-1.66-1.38-4.1-1-6.27a43.15,43.15,0,0,1-4,5c-1.35,1.52-2.49,3.48-3.87,4.7a12.89,12.89,0,0,1-3.92,2.89,6,6,0,0,1-5.92.07,5.75,5.75,0,0,1-2.47-4.27c-.28-3.77,1.62-7,3.39-10.12a41.79,41.79,0,0,1,7.34-8.9,28.4,28.4,0,0,1,7.5-4.82,10.41,10.41,0,0,1,3.69-.88c1.41.3,3.48,1.12,2.92,2.86a1.76,1.76,0,0,1-2.48.89c-.3,0-.47-.1-.79-.21h-.15c-.13.17-.45.06-.58.22s-.87.41-.58.22a37.86,37.86,0,0,0-6.3,4.68,42.54,42.54,0,0,0-5.2,6.37c-1.55,2.31-3.24,4.78-3.82,7.74a5.45,5.45,0,0,0,.14,3.78.54.54,0,0,0,.43-.2,16.24,16.24,0,0,0,3.72-3.32,41.71,41.71,0,0,0,4-4.86l7.63-10.3,4.16-4.74.13-.17c.9-1.47,2.11-2.82,2.85-4.28.92-1.32,4.48-.67,4.67,1l0,.15a2.57,2.57,0,0,1-.61,1.29c-.11.32-.4.5-.51.82a39.49,39.49,0,0,0-4,6.53,18.17,18.17,0,0,0-1.09,2.41,32.33,32.33,0,0,0-1.63,5.66l-.28,1.55c-.73,2.82,1.79,5,5.27,3.5a49.87,49.87,0,0,0,8.23-5.06c6.9-4.74,12.26-11,17.92-17.26a3,3,0,0,1,3-.34C402.75,235.37,404.09,236.43,403.41,237.12Z"/><path class="cls-1" d="M404,233.4a2.07,2.07,0,0,0,.49.25c1.23.16-1.28,6.07-2.39,8.32a133.65,133.65,0,0,1,12.1-9.75l.85-.55,1.28-.76a26.63,26.63,0,0,1,6.23-2.69s.14,0,1.18-.29a9.15,9.15,0,0,1,2.27-.11c1.38.15,3.28.84,3.06,2.84-.46,1.27-2.77,1.08-4,.77a7.58,7.58,0,0,0-2.35.72c-.15,0-.15,0-.43.21l-1.3.6q-2.34,1.41-4.24,2.77l-1.41.92-2.66,2-1.53,1.24-3.35,2.51-2.46,2.42-3.34,4-3.08,3.54-3,4.3a31.39,31.39,0,0,1-1.72,3.54,3,3,0,0,1-.37.8c-.23.64-2.08.4-2.7.32-.78-.22-1.83-1.46-1.6-2.1l1.48-2.91a71.24,71.24,0,0,0,3.67-7.71l.7-1.91,2.49-6.06c.76-2.67,1.91-5.84,3.27-7.21A4.77,4.77,0,0,1,404,233.4Z"/><path class="cls-1" d="M475.14,227.94c-2.82,3.21-6.73,6.24-9.88,9.19-3.31,3-6.65,5.63-10.27,8.48a119.16,119.16,0,0,1-15.63,10.77c-3.72,1.95-8.63,4.18-12.77,2.53a5.44,5.44,0,0,1-3.5-4c-.41-2.23.21-4.74.72-6.92,1.49-6.86,4.08-13.39,6.82-19.94,1.75-4.6,3.66-9.08,5.73-13.57l-2.85.32c-8.7,1-17.25,2-25.78,3.13-8.25.95-16.48,2-24.73,3-6.15.71-12.28,1.57-18.58,2.29l-4.65.54-.6.07c-1.78.36-4.31.8-5.17-1.38-.2-.43.2-.94.46-1.27a2.06,2.06,0,0,1,1.32-.45l-.3,0,.15,0,.45-.05c4.78-.7,9.58-1.26,14.53-1.83,2.4-.27,4.95-.57,36-4.45l25.64-2.95c2-.23,3.9-.45,5.83-.83.35-.95.85-1.92,1.32-3a17.38,17.38,0,0,1,.94-2.39l.71-1.76c.71-1.75,1.57-3.52,2.43-5.29l3-5.81,1.79-2.95.91-1.32a2.33,2.33,0,0,1,1.7-1.1,2.81,2.81,0,0,1,2.35.64,1.35,1.35,0,0,1,.34,1.63,116.6,116.6,0,0,0-5.84,11.31c-.35.95-1,1.94-1.36,2.74l-.69,1.9a38.16,38.16,0,0,1-1.91,4.48.58.58,0,0,1-.12.32c3.15-.37,6.47-.6,9.77-1A104.84,104.84,0,0,1,465.24,208a3.66,3.66,0,0,1,2.74,1.35,1.34,1.34,0,0,1-.84,1.92c-2.5.75-4.8,1.92-7.44,2.68a3.75,3.75,0,0,1-3.43-.67,1.38,1.38,0,0,1-.57-1l-.9.1-12.89,1.49c-2.13,5.26-4.54,10.7-6.67,16-2.44,6.51-5,13-6.52,19.9a18.3,18.3,0,0,0-.55,4.47l0,.15c.31,2.7,2.74,1.36,4.33.72a37.5,37.5,0,0,0,6.31-3.31,193.76,193.76,0,0,0,32-25.87c.81-.86,2.68-.47,3.5,0C475,226.29,475.82,227.25,475.14,227.94Z"/><path class="cls-1" d="M609.79,251.78c-.34,2.32-5.76,1.42-5.27-.91a3.1,3.1,0,0,0-.19-1.65c0-.15-.18-.29-.2-.44l-.67-.53a.15.15,0,0,0-.17-.13l-.15,0a15.05,15.05,0,0,0-2.85-1c-.47-.1-.94-.2-1.55-.28-.17-.13-1.54-.13-1.55-.28l-.16,0a118.68,118.68,0,0,0-14.6-.14,186.29,186.29,0,0,0-28.79,3.32c-4.17.78-8.48,1.59-12.63,2.52s-8.58,2.05-13,3.17c-17.25,4.57-34.65,10.53-51.7,16.9a.54.54,0,0,1-.43.2c-1.17,3-2.36,5.9-3.68,8.94A142.29,142.29,0,0,1,465,296.73c-2.55,4.25-5.26,8.36-9.7,10.7-3.15,1.73-7.2,2.19-10.46.29a8,8,0,0,1-3.93-7.75c.07-3.35,1.49-6.86,3-9.77a38.44,38.44,0,0,1,5.93-7.83c4.79-4.65,10.79-7.93,16.87-10.6,1.59-.64,3.19-1.28,4.94-1.94L473,266a.15.15,0,0,1,.14-.16,134.32,134.32,0,0,1,4.73-13c.66-2.2,1.48-4.27,2.14-6.48a61.18,61.18,0,0,1-4.7,4c-1.7,1.11-3.84,2.27-6,2.21a5.77,5.77,0,0,1-5.2-4.26,10.67,10.67,0,0,1-.06-5.77c.79-2.37,1.6-4.59,2.54-7s2-4.79,3.11-7.35a5.76,5.76,0,0,1,.59-1.44.42.42,0,0,1,.12-.31c0-.15.11-.32.24-.49.1-.46.35-1,.45-1.42.36-2.17,5.48-1.24,5.12.93-.21.79-.58,1.59-.81,2.22-.59,1.44-1.32,3-1.91,4.48-1.32,3-2.5,6.06-3.77,9.55-.19.94-.54,1.89-.72,3a3,3,0,0,0-.18,1.09l0,.15,0,.3a10.68,10.68,0,0,0,.41,2.23s2.58,0,5.08-3.32c.82-.86,1.61-1.86,2.54-3,1.86-2.34,3.55-4.82,5.26-7.14,1.42-2.14,2.71-4.11,4.16-6.1,1.31-1.83,2.77-3.67,4.09-5.34.75-1.45,1.49-2.91,3.11-3.4a3.54,3.54,0,0,1,2.77.29c.65.38,1.35,1.21.82,1.88-.8,1-1.61,1.86-2.41,2.86a2.28,2.28,0,0,1-.48,1.12c-.69,1.91-1.7,3.69-2.54,5.61-1.7,3.7-3.39,7.54-5.09,11.23-.25.48-.36.8-.61,1.29-2.18,6.17-4.33,12.5-6.66,18.69-.44,1.42-1,2.86-1.63,4.3,9-3.33,17.94-6.48,27-9.35,8.5-2.65,17-5.16,25.74-7.37s17.49-3.84,26.29-5.31a162.79,162.79,0,0,1,29.63-2.66,64.37,64.37,0,0,1,13.3.75C603.91,244.25,610.82,246.19,609.79,251.78Zm-140.19,23c-.15,0-.15,0-.29.19a43.48,43.48,0,0,0-8.6,4.49c-5.52,3.52-10,7.84-12.85,13.79-1.07,2.55-2.47,6.21-2,9,0,.3.24.73.27,1,0,.15,0,.3.18.29l0,.3c.17.13.59,1.14.89,1.11,0,.15.33.26.33.26,0,.15,0,.15.17.14l.17.13.15,0a.14.14,0,0,0,.16.13h.15c.15,0,.15,0,.17.13l.3,0,.3,0,.45-.05.45,0c0-.15.28-.19.28-.19a3.35,3.35,0,0,0,1.17-.44c.43-.2.58-.21.85-.55a18.19,18.19,0,0,0,2.66-2c.13-.16.41-.35.54-.52a35.66,35.66,0,0,0,3.42-4.64,116.8,116.8,0,0,0,7.31-14.37C467.33,280.2,468.54,277.48,469.6,274.77Z"/></svg>